<svg width="310" height="302" viewBox="0 0 310 302" fill="none" xmlns="http://www.w3.org/2000/svg">
<path d="M150.521 7.11304C156.404 6.24192 169.528 7.57182 175.589 8.37907C203.764 11.9503 230.449 23.0718 252.821 40.5667C259.476 45.7655 267.238 53.583 272.838 59.9317C285.343 74.1155 294.901 90.6447 300.958 108.557C303.326 115.715 305.373 124.363 306.223 131.824C306.763 135.409 307.516 138.861 307.543 142.507C307.596 149.081 307.566 155.66 307.556 162.234C307.548 166.271 306.878 169.877 306.283 173.862C302.781 197.783 293.163 220.394 278.358 239.506C250.556 275.441 206.593 297.418 161.213 298.108C153.693 298.038 146.498 298.266 138.982 297.561C69.1839 291.009 10.7713 235.523 4.5948 165.093C2.80005 144.627 5.6956 125.026 12.2502 105.564C13.0861 103.082 14.5146 100.705 15.4831 98.2667C21.1068 83.1415 30.6807 69.9295 40.8642 57.5612C43.5332 54.3195 46.7977 51.8892 49.8354 48.9825C71.7692 28.236 99.3682 14.4678 129.135 9.42319C137.24 8.01347 142.574 7.72297 150.521 7.11304Z" fill="#09090A"/>
<path d="M149.364 9.62605C149.626 9.60325 149.89 9.58795 150.153 9.58018C179.5 8.63775 208.515 16.0197 233.843 30.8726C274.924 54.5621 302.419 97.3341 305.069 144.598C305.129 145.703 305.239 146.778 305.272 147.889C306.362 177.126 298.117 205.951 281.732 230.19C268.322 250.325 249.623 266.987 228.225 278.222C207.998 289.07 185.509 295.027 162.563 295.615C145.751 297.875 116.552 292.137 100.874 286.192C66.1771 273.04 34.8091 245.083 19.6032 210.983C14.5507 199.653 11.0069 188.687 8.82542 176.745C0.958749 133.684 15.3602 88.9376 45.0849 57.1981C59.4449 41.8124 76.9259 29.6724 96.3576 21.5902C99.8526 20.1571 103.573 19.1306 107.107 17.8102C118.82 13.434 131.387 10.9715 143.853 10.2069C145.565 10.1019 147.387 10.0111 149.069 9.68513L149.364 9.62605Z" fill="#FEFEFE"/>
<path d="M154.495 34.3755C155.128 34.3613 155.76 34.3535 156.393 34.3518C168.707 34.3278 181.865 36.5725 193.57 40.2023C279.705 66.9145 308.895 171.008 244.557 235.125C221.415 258.218 189.963 271.04 157.272 270.71C146.193 270.558 135.738 269.923 124.987 267.201C122.931 266.488 119.002 266.196 117.13 265.326C112.858 263.336 107.786 262.088 103.619 260.205C90.8783 254.45 79.9698 247.025 69.8311 237.419C46.9083 216.025 33.4928 186.353 32.5728 155.011C31.8488 126.034 44.3381 94.7933 64.2951 73.8873C87.8361 49.1385 120.342 34.8993 154.495 34.3755Z" fill="#09090A"/>
<path d="M159.393 36.1211C189.22 36.0631 221.311 50.0444 242.712 70.7944C262.731 90.2051 276.736 117.943 277.546 146.19C277.671 150.58 277.743 159.538 277.376 163.711C275.013 190.497 263.251 214.391 244.411 233.479C233.853 244.176 219.6 253.673 205.843 259.783C195.471 264.388 180.546 267.695 169.337 269.008C164.917 269.525 156.988 269.423 152.265 269.475L151.65 269.485C138.385 269.598 124.132 266.2 111.665 261.78C109.402 260.848 106.748 260.273 104.555 259.203C91.4628 252.808 79.4833 245.004 69.1255 234.793C46.8693 213.151 34.1828 183.514 33.887 152.472C33.8673 147.72 34.7455 140.79 35.4983 136.168C39.1298 112.458 50.0793 90.4751 66.8158 73.2924C87.2195 52.5161 114.226 39.5004 143.189 36.4841C147.966 36.0091 154.439 36.1381 159.393 36.1211Z" fill="#CBECFE"/>
<path d="M156.176 161.436C159.831 158.589 166.662 155.486 171.242 154.55C174.82 153.818 179.319 153.266 182.998 153.585C185.161 153.694 187.722 154.687 189.774 155.162C196.589 157.144 217.641 164.715 221.23 170.216C228.962 182.066 235.884 192.723 243.473 204.516C244.481 206.082 249.471 214.027 249.677 215.084C249.019 215.253 246.685 214.38 245.921 214.048C232.686 208.3 218.916 204.396 204.998 200.661C199.457 199.174 191.843 198.717 186.072 198.702C180.893 198.708 172.254 199.463 167.368 201.192C164.156 202.329 162.442 205.035 157.899 205.143C150.719 205.315 148.431 202.664 142.357 200.215C140.093 199.302 134.949 199.126 132.302 198.93C125.097 198.589 116.305 198.512 109.253 200.204C103.063 201.689 96.4534 203.609 90.2664 205.26C81.1086 207.704 71.8091 212.484 62.7656 215.014C63.8644 212.914 65.2111 210.952 66.2829 208.886C72.9244 196.039 82.0964 184.398 89.5939 172.009C93.1351 166.157 101.519 163.601 107.542 160.535C113.446 157.529 122.299 155.046 128.809 153.572C138.718 153.179 148.113 155.445 156.176 161.436Z" fill="#09090A"/>
<path d="M175.972 154.604C179.234 153.963 183.648 154.229 186.83 155.108C190.898 156.232 195.031 157.326 198.965 158.864C202.488 160.242 205.898 162.005 209.356 163.545C212.51 164.948 216.159 166.269 218.854 168.479C220.887 170.147 241.473 202.353 243.567 206.048C234.226 200.687 224.82 197.873 214.797 194.618C199.03 189.497 183.458 186.464 167.123 191.005C165.7 191.401 158.469 194.866 157.762 196.093C158.627 196.417 161.209 194.502 162.216 193.929C166.934 191.241 174.467 190.011 179.785 189.679C189.563 188.577 203.135 191.599 212.512 194.696C214.653 195.403 216.925 195.888 219.048 196.612C227.473 199.481 235.832 202.41 243.612 206.803C244.053 207.051 244.878 208.148 245.209 208.585C240.526 206.53 234.515 204.06 229.752 202.325C221.532 199.332 212.316 197.29 203.846 195.011C199.748 193.909 195.19 192.843 190.971 192.288C181.196 191.616 170.166 192.161 161.217 196.535C159.793 197.231 159.185 198.332 157.63 197.528C157.188 196.702 156.818 195.041 156.815 194.122C156.773 183.489 156.487 172.619 156.783 162.001C161.109 157.892 170.019 155.267 175.972 154.604Z" fill="#FEFEFE"/>
<path d="M127.831 154.527C128.404 154.475 128.978 154.436 129.552 154.409C138.022 154.011 149.649 156.457 155.966 162.233C155.864 173.572 156.163 185.318 155.907 196.591L155.631 196.672C155.017 196.018 154.3 195.54 153.537 195.074C139.931 186.772 122.672 187.887 107.79 191.543C103.458 192.608 99.3613 194.174 94.9515 195.265C90.6348 196.46 86.254 198.461 81.998 199.919C77.1713 201.571 72.5375 203.918 67.9473 206.131C75.3858 195.663 82.0888 184.33 89.267 173.657C90.1463 172.468 91.4533 169.917 92.6403 169.115C98.3388 165.266 105.939 161.935 112.231 159.246C117 157.208 122.935 155.849 127.831 154.527Z" fill="#FEFEFE"/>
<path d="M127.063 189.359C130.15 188.789 140.539 190.779 143.755 191.468C146.041 191.958 153.732 195.66 155.172 197.228C154.99 197.534 154.805 197.794 154.376 197.655C149.079 195.822 145.074 193.155 139.312 192.597C129.265 191.624 121.979 191.7 112.214 194.162C105.628 195.822 100.254 196.883 93.5747 199.125C84.9085 201.013 75.476 205.357 66.9707 208.369C73.631 201.848 102.843 193.293 113.007 191.133C115.962 190.506 123.711 189.674 127.063 189.359Z" fill="#FEFEFE"/>
<path d="M123.698 192.853C128.708 192.416 138.655 193.162 143.803 194.293C145.343 194.631 151.881 197.066 152.497 198.15C152.302 198.426 152.316 198.522 151.874 198.41C136.494 194.519 120.775 194.252 105.411 198.42C103.172 199.028 100.769 199.449 98.5129 200.073C95.7916 200.826 93.1811 202.029 90.4376 202.695C82.1921 205.349 73.8621 208.273 65.6094 211.005C66.2199 210.108 66.5931 209.653 67.3131 208.837C72.6681 207.552 78.6426 204.363 84.0509 202.699C96.8226 198.77 110.397 194.375 123.698 192.853Z" fill="#FEFEFE"/>
<path d="M180.864 192.849C182.101 192.632 187.168 192.688 188.563 192.82C198.024 193.674 207.387 196.734 216.523 199.156C224.444 201.256 231.635 203.358 239.044 206.99C240.667 207.785 246.126 208.644 245.934 210.813C246.042 210.802 230.412 205.546 228.941 205.099C224.399 203.592 219.627 201.662 215.021 200.371C200.232 196.225 184.802 193.695 169.516 196.564C167.007 197.034 162.495 198.656 160.224 198.487L160.143 198.106C165.321 194.056 174.514 193.53 180.864 192.849Z" fill="#FEFEFE"/>
<path d="M162.33 199.21C182.158 193.013 203.822 197.013 222.981 203.797C222.117 204.195 221.904 204.202 220.985 204.31C214.321 202.389 206.152 199.964 199.488 198.808C188.64 196.927 177.241 198.439 166.501 200.062C165.429 200.225 163.409 199.535 162.33 199.21Z" fill="#FEFEFE"/>
<path d="M91.541 203.285C99.8763 199.771 113.697 196.867 122.752 196.28C129.573 195.837 144.384 196.548 150.618 198.957C148.983 199.481 147.346 199.996 145.705 200.501C143.868 199.946 140.857 198.908 139.035 198.692C131.78 197.835 124.233 197.992 116.945 198.338C109.844 198.675 102.991 201.326 96.132 202.946C94.9303 203.23 93.848 203.521 92.694 203.963L91.541 203.285Z" fill="#FEFEFE"/>
<path d="M155.812 198.06C157.605 197.832 163.625 200.568 166.405 201.032C162.873 203.082 161.884 203.707 157.813 203.886C152.525 203.847 150.937 203.914 146.416 201.16C149.57 200.275 152.665 198.978 155.812 198.06Z" fill="#FEFEFE"/>
<path d="M91.5414 203.282L92.6944 203.96C87.4411 204.926 78.8221 208.589 73.5171 210.421C70.9666 211.302 67.0114 213.323 64.3779 213.661L64.3066 213.328C64.6179 212.837 64.9236 212.397 65.3789 212.027C66.5564 211.072 90.3211 203.179 91.5414 203.282Z" fill="#FEFEFE"/>
<path d="M222.983 203.805L235.164 207.821C236.218 208.173 238.49 209.116 239.286 209.335C239.174 209.693 239.044 210.076 238.943 210.435C236.881 209.513 222.965 204.606 220.986 204.317C221.906 204.209 222.119 204.202 222.983 203.805Z" fill="#FEFEFE"/>
<path d="M239.285 209.328C241.41 210.032 244.466 210.947 246.34 212.01L246.517 212.11C247.594 212.722 248.281 213.611 249.071 214.552C245.813 213.193 242.067 211.882 238.941 210.428C239.042 210.069 239.172 209.686 239.285 209.328Z" fill="#FEFEFE"/>
<path d="M67.0137 124.984C68.4084 125.122 75.2759 128.138 77.0472 128.862C91.8874 134.925 107.105 140.721 121.829 147.012C120.802 147.976 119.841 149.485 119.019 150.665L116.731 153.975C111.478 150.543 103.47 146.191 97.8994 142.937C87.6644 136.849 77.3687 130.865 67.0137 124.984Z" fill="#63CBCB"/>
<path d="M243.499 125.57L243.799 126.066C233.421 131.894 223.137 137.89 212.951 144.049C208.38 146.805 201.014 151.564 196.422 153.89C195.826 153.224 191.501 147.309 191.498 146.844L243.499 125.57Z" fill="#63CBCB"/>
<path d="M191.643 86.1953L191.838 86.5803C191.079 89.1076 190.075 91.6168 189.313 94.1543C185.097 108.203 180.12 121.975 175.252 135.815C173.498 134.743 171.646 134.136 169.689 133.573C168.68 133.238 167.654 133.216 166.83 132.619C167.945 130.75 169.071 128.785 170.047 126.836C175.758 115.426 182.258 104.472 187.987 93.0758C189.125 90.8118 190.293 88.3063 191.643 86.1953Z" fill="#63CBCB"/>
<path d="M155.624 86.6172L156.888 87.3507C157.117 88.2769 157.359 91.6564 157.453 92.7442L158.348 102.967C159.213 112.4 160.584 122.349 160.992 131.775L151.634 131.779C151.601 127.729 152.514 120.583 152.91 116.334L155.624 86.6172Z" fill="#63CBCB"/>
<path d="M92.7321 104L119.296 126.694C123.705 130.533 127.963 134.094 132.13 138.196C129.183 139.627 127.434 141.085 125.138 143.398C121.125 139.14 117.333 134.056 113.582 129.527C106.777 121.311 99.5418 112.247 92.2266 104.492L92.7321 104Z" fill="#63CBCB"/>
<path d="M217.328 106.312L218.072 107.306C215.647 109.957 213.02 113.355 210.66 116.167L196.858 132.549C194.238 135.688 190.325 140.677 187.502 143.364C185.151 140.998 182.949 139.729 180.082 138.042C181.748 137.112 188.066 131.504 189.848 129.98L209.417 113.228C212.121 110.906 214.52 108.546 217.328 106.312Z" fill="#63CBCB"/>
<path d="M123.41 90.0234C127.378 97.1767 131.053 105.092 134.973 112.339C138.668 119.171 142.852 125.969 146.395 132.855C142.663 133.228 140.549 134.11 137.313 135.844C134.303 126.803 131.356 117.741 128.473 108.658C126.692 102.98 124.932 96.8317 122.861 91.2922L123.41 90.0234Z" fill="#63CBCB"/>
<path d="M244.768 105.32C245.083 106.065 238.355 111.124 237.438 111.879C233.663 115.021 229.905 118.184 226.166 121.369C222.728 124.25 218.999 127.243 215.809 130.361L213.618 128.286C212.703 127.375 211.743 126.465 210.814 125.563C213.757 124.439 219.895 120.191 222.908 118.413C230.166 114.129 237.451 109.485 244.768 105.32Z" fill="#FE0465"/>
<path d="M136.221 72.1562C137.647 73.0335 144.759 99.9543 145.855 103.437C146.034 104.004 146.239 104.835 146.14 105.45L145.721 105.652C144.196 105.872 141.634 106.721 140.242 106.263C139.707 104.382 135.863 73.6788 136.221 72.1562Z" fill="#FE0465"/>
<path d="M67.0371 104.773C69.1564 105.849 71.8056 107.745 73.8321 109.109L91.9619 120.012C94.9674 121.804 98.1576 123.831 101.262 125.402C99.5699 127.134 98.3724 128.735 96.8286 130.395C93.2074 126.909 89.2654 123.775 85.4094 120.543L72.7359 109.729C70.1981 108.094 69.0911 106.982 67.0371 104.773Z" fill="#FE0465"/>
<path d="M213.638 83.4531L213.804 83.6244C213.892 84.5996 202.49 103.562 201.286 106.292C200.755 107.495 197.223 113.697 196.296 114.98C195.195 114.564 193.596 113.774 192.486 113.268C191.622 113.007 191.288 113.072 190.791 112.475C194.603 107.92 197.936 103.205 201.585 98.5674C205.545 93.5349 209.615 88.4356 213.638 83.4531Z" fill="#FE0465"/>
<path d="M174.338 77.9922C175.618 79.2339 175.459 79.4752 175.518 81.3622C174.966 87.5759 174.088 93.6982 173.252 99.8772C172.958 102.046 172.558 104.311 172.646 106.493C169.935 106.537 168.464 105.739 165.92 105.817C168.947 97.7212 172.205 86.3349 174.338 77.9922Z" fill="#FE0465"/>
<path d="M101.594 87.5469L114.849 104.049C116.933 106.629 119.636 110.201 121.814 112.556C119.972 113.35 118.009 114.299 116.191 115.039C111.21 106.031 106.248 97.0384 100.795 88.3066L101.594 87.5469Z" fill="#FE0465"/>
<path d="M174.338 77.9943C174.859 75.9756 175.41 74.3273 176.086 72.3516C176.823 73.3901 175.719 79.9808 175.518 81.3643C175.458 79.4773 175.617 79.2361 174.338 77.9943Z" fill="#F8347F"/>
<path d="M217.328 106.308C219.19 104.57 221.079 102.86 222.993 101.18C222.982 101.927 218.866 106.407 218.071 107.301L217.328 106.308Z" fill="#80CED9"/>
<path d="M155.625 86.6176C155.914 85.2056 155.537 82.0018 156.469 80.9766C156.821 83.0268 156.865 85.2696 156.89 87.3511L155.625 86.6176Z" fill="#80CED9"/>
<path d="M97.2832 82.3594C98.9525 83.8651 100.361 85.6731 101.594 87.5459L100.795 88.3056C99.315 86.2786 98.3477 84.6059 97.2832 82.3594Z" fill="#F8347F"/>
<path d="M122.862 91.2919C122.396 89.5712 121.729 87.9474 121.24 86.0547C121.977 87.3019 122.864 88.6999 123.411 90.0232L122.862 91.2919Z" fill="#80CED9"/>
<path d="M92.226 104.497C91.612 103.869 90.3617 102.738 90.2207 101.938C91.0667 102.217 92.0585 103.339 92.7315 104.005L92.226 104.497Z" fill="#80CED9"/>
<path d="M243.5 125.569C244.392 125.162 244.598 124.896 245.476 124.964C245.152 125.567 244.468 125.759 243.8 126.065L243.5 125.569Z" fill="#80CED9"/>
<path d="M288.625 121.341C298.995 119.855 304.06 135.618 289.555 138.195C277.462 139.133 275.04 122.777 288.625 121.341Z" fill="#063673"/>
<path d="M288.903 123.55C293.71 123.323 295.555 125.162 296.623 129.69C295.548 133.7 293.655 134.944 289.638 135.737C287.513 135.914 285.745 135.89 283.933 134.629C282.673 133.763 281.82 132.421 281.573 130.913C281.315 129.444 281.665 127.933 282.545 126.728C284.123 124.531 286.41 123.978 288.903 123.55Z" fill="#FEFEFE"/>
<path d="M206.521 22.5625C210.927 24.3635 215.185 25.4679 217.697 29.5669C218.115 35.2884 216.246 40.4509 210.318 42.2309C206.952 42.4409 202.414 40.0794 199.166 38.7546C201.245 33.5399 204.409 28.0224 206.521 22.5625Z" fill="#063673"/>
<path d="M207.992 25.3359C213.064 27.8884 218.049 28.8322 214.307 35.9822C213.076 38.3334 211.964 39.1987 209.614 40.2527C207.637 40.2247 204.024 38.5204 202.131 37.7034C204.086 34.1204 206.195 29.1509 207.992 25.3359Z" fill="#FEFEFE"/>
<path d="M146.211 14.2755C149.408 14.2377 154.126 13.9117 157.077 15.0398C158.101 15.4313 159.381 16.4275 159.562 17.3393C160.142 20.2503 159.269 20.5783 157.509 22.3938C157.208 22.7045 159.546 24.1117 159.935 24.9595C160.657 26.529 160.381 27.5145 159.928 29.0798C156.989 33.0598 150.758 32.0318 146.22 31.9978L146.211 14.2755Z" fill="#063673"/>
<path d="M148.514 23.76C151.707 23.6796 161.699 23.0435 156.643 29.1188C154.335 29.9283 151.04 29.6773 148.524 29.6238L148.514 23.76Z" fill="#FEFEFE"/>
<path d="M150.249 16.6126C152.312 16.562 155.531 16.3036 157.169 18.08C158.267 19.2709 156.585 20.6231 155.577 21.2342C153.318 21.442 150.804 21.3329 148.517 21.2863C148.578 20.205 148.386 19.1907 148.428 18.1229C148.487 16.6084 149.108 16.7461 150.249 16.6126Z" fill="#FEFEFE"/>
<path d="M289.53 101.291C289.785 101.219 289.973 101.241 290.25 101.234C291.078 102.646 294.005 111.203 293.365 112.736C291.41 117.411 286.555 117.762 283.768 112.918C282.508 116.232 279.925 118.828 277.603 121.518C277.17 120.176 276.433 118.973 277.338 117.846C279.495 115.469 281.393 113.536 282.653 110.54L281.263 106.207C279.26 106.923 274.64 109.102 272.95 107.838C272.753 107.048 272.713 107.318 272.915 106.594C275.095 105.438 286.563 102.183 289.53 101.291Z" fill="#063673"/>
<path d="M288.417 104.051L288.832 104C289.949 104.881 294.509 115.129 286.784 113.6C284.994 111.847 284.059 108.214 283.127 105.706C284.897 105.171 286.659 104.619 288.417 104.051Z" fill="#FEFEFE"/>
<path d="M70.0866 41.5369C72.7248 41.2286 75.0186 42.0749 76.2068 44.7084C76.9151 46.2776 75.5726 48.2864 74.8113 49.7279C78.6273 50.5611 81.0691 51.2556 84.7721 52.4199C83.9638 53.1026 83.1608 53.6591 82.2998 54.2706C79.4856 53.3459 75.7781 52.0129 72.9166 51.5699C71.8771 52.1594 69.3623 53.6174 68.8878 54.5974L69.2071 55.0176C70.0563 56.1851 73.0828 59.6581 73.5248 60.6679C73.1926 61.3591 73.0698 61.2751 72.3488 61.7244C70.7326 61.3629 62.4153 50.4126 60.3516 48.1809C63.7003 45.9516 66.2943 43.3561 70.0866 41.5369Z" fill="#063673"/>
<path d="M70.568 43.5078C74.2915 44.0701 74.897 46.5328 72.2432 49.1068C70.8 50.5068 69.0367 51.7123 67.4165 52.9123C66.1432 51.2723 64.9115 49.8528 63.543 48.2896C65.5057 46.7808 68.3387 44.4566 70.568 43.5078Z" fill="#FEFEFE"/>
<path d="M185.751 16.8047C189.398 17.8187 194.548 18.5377 197.555 20.9133C198.246 21.5317 198.987 22.7535 198.88 23.7066C198.41 27.9118 195.972 28.596 192.507 28.5543C194.541 31.2633 195.338 34.6465 196.275 37.871C193.676 37.497 193.478 37.5978 192.713 35.0498C191.995 32.416 191.62 30.7835 190.109 28.44C188.488 27.5838 187.049 27.311 185.28 26.8723C184.911 28.215 183.636 33.319 182.985 34.0865C182.126 34.145 182.027 34.1283 181.274 33.7135C180.723 32.588 185.171 19.2337 185.751 16.8047Z" fill="#063673"/>
<path d="M187.716 19.3594C190.995 19.81 200.556 22.3011 194.301 26.6146C192.251 26.9211 188.026 25.4771 185.877 24.8331C186.456 22.9972 187.069 21.1724 187.716 19.3594Z" fill="#FEFEFE"/>
<path d="M263.575 59.4375C264.222 59.7973 265.537 61.4335 266.097 62.0768C264.065 65.6488 259.275 72.2787 256.81 75.936C261.135 73.903 267.957 72.126 272.76 70.0827L275.037 72.6787C270.487 75.9007 265.637 80.402 260.865 83.41C260.327 83.7485 260.232 83.6248 259.762 83.4443C259.34 82.6598 259.437 83.0125 259.485 82.0358C259.82 81.2023 266.687 76.1952 267.885 75.2682L270.757 72.84C267.707 73.67 256.937 78.6078 254.725 77.2118C254.032 75.3143 261.56 65.1523 263.015 62.9888C259.86 64.9735 256.01 68.3625 253.045 70.6985C251.995 71.5245 251.632 72.036 250.142 71.9165C249.423 71.4903 249.587 71.73 249.373 71.0527C249.746 69.7547 261.637 60.9878 263.575 59.4375Z" fill="#063673"/>
<path d="M84.3785 31.9844C85.8965 32.6584 98.388 42.4754 100.331 44.0746C96.03 46.1779 96.8173 43.4311 93.3733 41.8356C92.7755 41.5589 91.9535 42.1494 91.3665 42.4486C89.8428 43.3619 87.9398 44.3351 86.355 45.1961C86.519 47.3301 88.4835 51.0886 85.4415 51.7471L85.0768 51.4969C84.5033 49.8869 82.4018 34.9664 82.5333 33.2326C82.9335 32.5144 83.593 32.3419 84.3785 31.9844Z" fill="#063673"/>
<path d="M84.4609 34.6719C85.3987 34.9979 90.3842 39.1419 91.1637 40.0836C90.8259 40.8266 90.7472 40.6861 89.9109 41.1309C88.6612 41.8334 87.3507 42.4644 86.0652 43.1031C85.6017 40.2921 85.1794 37.4254 84.4609 34.6719Z" fill="#FEFEFE"/>
<path d="M171.17 14.4453C172.095 14.4861 172.267 14.4891 173.133 14.8001C174.243 15.8635 178.178 30.9812 178.807 33.5232L176.016 33.0684C175.607 31.1889 175.136 29.3234 174.604 27.4752C173.561 27.3709 172.482 27.2242 171.438 27.0969C169.897 26.8722 168.322 26.7557 166.769 26.6194C165.892 28.4872 164.726 32.3404 162.135 31.3512L161.971 30.8452C162.572 29.2677 170.034 15.9317 171.17 14.4453Z" fill="#063673"/>
<path d="M171.673 16.8906C172.33 17.3192 173.75 24.0886 174.161 25.5193L171.279 25.1588L167.758 24.6459C169.107 22.4913 170.888 19.2597 171.673 16.8906Z" fill="#FEFEFE"/>
<path d="M30.033 106.622C32.3027 106.383 36.642 106.483 39.0435 106.475L38.128 108.877C36.058 108.893 34.2077 108.895 32.1417 108.788C31.2755 111.049 30.3547 113.631 29.2727 115.766C30.641 116.751 33.365 118.398 33.8372 119.936C33.7777 120.729 33.7155 120.812 33.2152 121.438L32.593 121.333C30.3697 119.095 18.7357 110.698 18.2949 108.988C18.3777 108.096 18.3926 107.982 18.98 107.313C20.5639 106.554 27.679 106.748 30.033 106.622Z" fill="#063673"/>
<path d="M20.7227 109.055C23.2871 108.815 27.1682 108.921 29.8214 108.927C29.4107 110.25 28.8787 111.54 28.3704 112.829C28.1624 113.452 28.0889 113.607 27.7727 114.185L27.4092 114.223C25.3509 112.61 22.6517 110.687 20.7227 109.055Z" fill="#FEFEFE"/>
<path d="M107.608 21.3516C107.741 21.382 108.124 21.4929 108.168 21.5741C109.802 24.5837 114.152 34.706 114.927 37.3968C114.757 38.134 114.924 37.8673 114.202 38.3545C112.255 38.5585 110.203 37.0043 108.638 35.9825C105.212 33.7453 101.809 31.4873 98.3464 29.305C99.6724 32.3453 102.699 38.7948 103.588 41.708C103.382 42.6023 103.403 42.3633 102.578 43.0723C100.513 42.5078 98.8657 35.7443 97.8289 33.7073C96.9449 31.9705 95.0097 28.4785 95.4729 26.6858C96.2849 25.8753 97.2284 25.9603 98.2112 26.538C102.813 29.2433 107.217 32.341 111.728 35.22C110.663 33.1658 106.989 24.5487 106.411 22.5414C106.636 21.8408 106.897 21.8484 107.608 21.3516Z" fill="#063673"/>
<path d="M148.189 274.811C148.797 274.736 150.374 274.566 150.903 274.678C158.754 276.318 156.753 294.166 147.575 292.076C146.624 291.858 146.129 291.636 145.603 290.843C145.681 290.013 145.537 290.261 146.041 289.748L149.079 290.586C149.932 290.266 150.774 289.823 151.595 289.418C152.813 287.443 152.924 286.253 153.304 284.003C145.976 288.876 141.317 279.921 148.189 274.811Z" fill="#09090A"/>
<path d="M149.824 276.188C153.836 277.472 154.467 283.002 149.78 283.96C147.348 283.392 146.692 281.43 147.264 279.168C147.72 277.363 148.265 277.075 149.824 276.188Z" fill="#FEFEFE"/>
<path d="M177.516 274.785C179.059 274.627 180.694 274.562 182.169 275.09C182.762 275.7 182.598 275.382 182.632 276.475C180.578 278.485 176.753 272.055 174.892 282.695C179.264 279.672 183.383 281.299 183.439 286.864L183.396 287.12C183.048 289.272 181.887 290.979 180.012 291.772C173.074 294.704 171.406 283.447 173.347 279.174C174.567 276.487 175.194 275.822 177.516 274.785Z" fill="#09090A"/>
<path d="M177.968 282.719C181.563 282.657 182.631 288.364 178.505 290.454C175.612 290.309 174.691 287.077 175.591 284.742C176.101 283.419 176.759 283.259 177.968 282.719Z" fill="#FEFEFE"/>
<path d="M14.6149 121.117C16.4617 121.232 32.2028 123.592 32.8076 124.264C33.0513 124.535 32.9623 124.759 32.9526 125.102C31.3853 127.592 19.8467 131.645 16.306 133.22C18.8848 133.47 28.2421 134.834 30.4298 135.571C30.8603 136.195 30.7576 136.493 30.8368 137.32C28.9976 137.927 21.7621 135.937 19.4912 135.708C17.861 135.544 13.9499 135.294 12.7798 134.157C12.6732 133.784 12.5668 133.631 12.7245 133.257C13.6689 131.021 26.3168 126.533 29.0606 125.492C25.6228 124.964 17.9746 123.986 15.021 123.137C14.4984 122.367 14.6636 122.171 14.6149 121.117Z" fill="#063673"/>
<path d="M125.232 16.5777C127.748 16.3853 131.952 17.3796 132.353 20.3744L131.982 20.7246C129.693 21.2001 130.198 20.1622 128.66 19.2744C124.316 16.7658 119.155 20.249 119.222 24.9315C119.343 33.4261 127.203 35.2793 132.699 29.6566L132.007 26.3743C130.105 26.8351 128.192 27.2451 126.268 27.6033C126.201 26.8511 126.18 26.7753 126.337 26.0488C127.529 24.9401 131.887 24.2717 133.821 23.8016C134.242 25.9958 134.622 28.3381 135.408 30.4178C119.628 45.4273 107.909 19.1673 125.232 16.5777Z" fill="#063673"/>
<path d="M30.3119 182.051L30.9914 182.023C35.2019 184.073 37.5397 189.733 35.8354 194.119C34.2019 198.962 26.6732 200.923 22.3593 199.165C17.6577 197.248 14.6704 188.211 20.4314 185.438C20.8624 185.231 21.0005 185.343 21.349 185.529C21.7858 187.144 20.4606 188.275 19.5328 189.466C18.5801 193.995 21.9254 197.965 26.3942 197.445C35.0834 196.433 36.8917 189.809 30.4652 184.255L27.1847 185.221C27.6237 186.957 28.9064 188.966 27.9902 190.448C27.1354 190.726 27.4087 190.772 26.6699 190.547C26.0164 189.347 24.8704 185.362 24.2894 183.727L30.3119 182.051Z" fill="#063673"/>
<path d="M278.152 184.344C279.525 185.082 283.17 186.202 284.772 186.724L295.822 190.311C294.805 192.919 292.432 200.268 291.355 202.218C290.532 202.359 289.95 202.169 289.537 201.451C289.902 199.574 292.137 194.022 292.927 191.94C291.022 191.203 289.487 190.726 287.525 190.146L286.725 192.075C286.04 194.013 285.175 197.706 283.832 199.051C283.027 199.303 283.35 199.329 282.625 198.978C281.985 197.4 284.652 191.432 285.417 189.439C283.397 188.77 281.385 188.076 279.382 187.359C278.575 189.456 276.545 197.44 274.47 197.699L274.025 197.261C273.532 196.042 277.467 186.213 278.152 184.344Z" fill="#063673"/>
<path d="M225.476 30.8594C226.268 31.2074 226.638 31.3924 227.385 31.8259C227.538 32.8019 224.214 37.2611 223.443 38.3814C225.587 39.2864 229.516 41.8309 231.622 43.1291C232.585 41.8849 233.404 40.3389 234.292 39.0329C235.137 37.7904 234.921 37.5889 236.237 37.2974C237.201 37.5764 236.923 37.3574 237.431 38.0444C237.19 39.5699 229.899 49.9464 228.56 52.0909C227.998 52.9906 227.759 52.9284 226.935 53.0481C226.588 52.6494 226.487 52.4734 226.221 52.0354C226.363 50.6036 229.467 46.4871 230.507 44.8956L222.433 40.0296C221.416 41.6369 218.849 46.2646 217.456 46.8714C216.528 46.6751 216.857 46.8601 216.209 46.1819C216.074 44.7716 224.136 33.2514 225.476 30.8594Z" fill="#063673"/>
<path d="M15.7175 144.625C19.6701 145.844 23.9864 147.267 27.8442 148.805C28.91 149.229 29.7517 149.874 29.3297 151.08C27.5112 152.769 17.2345 154.995 13.4585 156.725C15.4168 156.657 28.448 156.324 29.3207 156.999C29.6372 157.831 29.6162 157.48 29.4252 158.324C28.3732 159.228 13.5905 158.597 11.0654 158.549C11.0494 157.491 10.9948 156.208 11.0327 155.169C16.1983 153.363 22.0309 151.866 27.3102 150.254C23.0277 149.001 18.6967 147.42 14.4748 145.939C14.9305 145.228 15.0472 145.146 15.7175 144.625Z" fill="#063673"/>
<path d="M29.4157 85.0703C29.6544 85.0958 29.8587 85.1343 30.0812 85.2306C32.2519 86.1681 37.3132 99.2421 38.3684 102.073C39.5449 100.158 42.9579 93.1361 44.2594 92.3431C45.0124 92.4963 44.8382 92.3586 45.3704 92.8053C45.4517 94.4903 41.1232 101.638 39.9822 103.712C39.5484 104.747 39.3947 104.83 38.3747 104.917C36.1647 104.036 31.2489 91.5041 29.8974 88.5411C28.7852 90.4928 26.2017 96.4526 24.2219 96.7958L23.7434 96.3601C23.4028 94.9046 28.3197 86.9853 29.4157 85.0703Z" fill="#063673"/>
<path d="M287.779 166.83C292.242 166.694 297.089 168.007 298.874 172.572C299.599 174.39 299.549 176.425 298.737 178.205C297.814 180.196 294.879 183.299 292.459 182.143L292.269 181.574C293.337 179.355 303.452 174.898 293.062 169.883C290.022 168.897 284.619 168.498 282.587 171.968C279.822 176.685 285.277 178.609 285.707 180.098C285.357 181.081 285.592 180.759 284.864 181.406C282.504 181.408 280.194 178.162 279.922 175.897C279.654 173.758 280.252 171.601 281.579 169.903C283.289 167.745 285.184 167.15 287.779 166.83Z" fill="#063673"/>
<path d="M165.214 275.023C166.031 274.973 166.266 274.95 167.068 275.093C168.324 276.91 166.143 283.805 168.069 285.63C168.747 285.658 168.824 285.63 169.413 285.928L169.453 286.528C168.34 287.85 167.043 286.16 167.372 289.195C167.432 289.753 167.342 290.895 167.201 291.448C166.519 291.858 166.025 291.798 165.398 291.418C164.852 290.625 164.988 289.68 164.997 288.69L164.917 287.638C162.947 286.155 159.343 288.523 158.264 286.288C158.366 284.313 163.75 276.948 165.214 275.023Z" fill="#09090A"/>
<path d="M164.633 278.945C165.148 279.638 164.999 284.455 164.998 285.66L161.259 285.595C160.808 285.595 161.025 285.648 160.613 285.353C160.893 284.1 163.811 280.123 164.633 278.945Z" fill="#FEFEFE"/>
<path d="M56.4674 52.4062C57.2999 52.6617 57.5084 52.857 57.7174 53.5973C57.1859 55.255 52.7109 59.0585 51.1896 60.5028C52.5626 61.7358 54.0436 63.233 55.3846 64.53C56.8899 62.89 60.1394 58.8723 62.3494 58.94L62.4281 59.377C61.7069 61.55 58.6344 64.158 56.8761 65.7485L58.2424 67.1268C59.1909 67.9923 62.3939 70.6452 62.5751 71.6252C62.2194 72.4097 62.4501 72.141 61.6404 72.6057C61.4454 72.5885 61.2074 72.5673 60.9266 72.542C56.8986 69.1833 51.6401 64.2278 47.8594 60.784C50.0469 59.0958 54.4046 54.514 56.4674 52.4062Z" fill="#063673"/>
<path d="M280.5 83.5312C280.75 83.6042 281.112 83.7737 281.365 83.8792C282.37 85.4215 288.095 94.783 288.017 95.978C287.405 96.5565 287.71 96.4062 286.865 96.534C285.397 95.952 284.337 93.1948 283.58 91.694L274.855 96.3357C273.277 97.0487 270.295 99.3465 268.72 98.8177C268.327 98.0347 268.137 97.9935 268.26 97.2445C270.35 95.7262 279.455 91.1968 282.297 89.6243C281.517 88.245 279.91 86.221 279.67 84.6992C279.587 84.1812 280.07 83.927 280.5 83.5312Z" fill="#063673"/>
<path d="M137.989 274.539C138.377 275.089 138.224 288.427 138.229 290.004C140.013 290.024 140.866 289.984 142.534 290.597L142.481 290.907C140.597 291.772 132.618 291.884 130.875 291.184C131.076 290.879 131.266 290.689 131.507 290.417C132.793 290.007 134.433 290.037 135.808 289.989L135.776 277.059C134.721 277.332 132.12 278.189 131.284 277.467C132.501 276.104 136.224 275.099 137.989 274.539Z" fill="#09090A"/>
<path d="M25.7441 170.348C27.2074 170.145 28.7224 170.132 29.9579 171.012C31.1564 171.857 31.9609 173.152 32.1869 174.601C32.6216 177.483 30.3681 179.323 27.7109 179.636C26.9509 179.273 27.1411 179.499 26.8369 178.835C27.4194 177.217 32.7006 174.815 28.2326 172.465C24.8296 172.389 13.9971 174.834 12.745 174.072C12.532 173.324 12.4808 173.267 12.6685 172.543C13.5582 171.87 23.7144 170.615 25.7441 170.348Z" fill="#063673"/>
<path d="M11.4545 141.738C13.7906 141.725 28.3088 141.718 29.566 142.297C29.762 143.04 29.7835 143.136 29.535 143.858C27.582 144.934 17.6969 143.541 15.6191 144.226L15.718 144.623C15.0477 145.144 14.931 145.227 14.4753 145.937C11.2735 144.919 11.3181 145.088 11.4545 141.738Z" fill="#063673"/>
<path d="M284.232 151.37C283.487 151.278 282.427 150.883 281.922 150.275C281.377 146.802 300.154 141.481 300.419 141.636C301.397 145.689 285.682 147.431 284.549 149.708C283.012 149.942 284.132 149.419 282.537 149.699C282.764 150.634 284.002 150.282 284.232 151.37Z" fill="#063673"/>
<path d="M277.118 78.5199C277.428 78.4194 277.498 78.4727 277.855 78.4962C278.62 79.2037 278.518 78.8927 278.553 79.7079C277.568 81.3097 266.468 87.7839 264.113 89.2847L263.498 89.4467C262.793 89.0747 262.425 88.3912 262.475 87.6012C263.055 87.1209 263.685 86.7232 264.328 86.3337C268.598 83.7467 272.763 80.9644 277.118 78.5199Z" fill="#063673"/>
<path d="M243.119 42.1328C244.085 42.4231 244.64 42.5781 244.956 43.5518C244.339 44.6053 241.938 47.3916 241.007 48.5223C238.647 51.3683 236.321 54.2428 234.032 57.1456C233.077 57.0688 232.443 56.4963 232.305 55.5686C233.121 54.2308 235.329 51.7066 236.403 50.4023L243.119 42.1328Z" fill="#063673"/>
<path d="M33.1883 78.8984C34.0385 79.0647 47.0175 87.1012 48.4623 88.3062C48.4253 89.3094 48.3268 89.1592 47.736 90.1172C46.6158 89.8752 33.7815 82.0092 32.3848 80.7629C32.4028 79.8329 32.6325 79.7859 33.1883 78.8984Z" fill="#063673"/>
<path d="M30.2398 162.68C30.6873 163.112 30.6005 164.341 30.156 164.866C27.2245 165.444 15.752 165.899 12.2786 166.07C11.802 165.626 11.8561 164.816 12.0485 164.247C13.0969 163.552 27.9283 162.823 30.2398 162.68Z" fill="#063673"/>
<path d="M281.643 160.219C285.728 160.323 296.093 160.984 299.981 161.556C300.411 162.225 300.246 162.601 300.243 163.522C298.298 163.56 283.506 162.721 281.733 162.324C281.361 161.67 281.551 161.009 281.643 160.219Z" fill="#063673"/>
<path d="M284.232 151.365C284.002 150.277 282.765 150.629 282.537 149.694C284.132 149.414 283.012 149.937 284.55 149.703C287.075 150.156 299.915 154.15 300.88 156.029L300.732 156.488C298.992 157.257 287.72 152.739 285.25 151.801C284.905 151.668 284.567 151.523 284.232 151.365Z" fill="#063673"/>
<path d="M43.7568 64.125C44.212 64.2303 44.2655 64.3295 44.624 64.627C45.2458 67.8002 46.9928 65.8455 48.327 67.0418C48.6345 67.816 48.4225 68.1895 48.1855 69.009C47.911 69.0975 47.5488 69.1387 47.256 69.1862C44.9323 68.287 43.6128 66.6825 43.7568 64.125Z" fill="#063673"/>
<path d="M251.089 48.5781C252.297 49.1164 252.799 49.2381 252.732 50.5814C252.184 51.8131 250.694 52.7444 249.544 53.3691C248.649 53.4706 248.372 53.5419 247.832 52.8514C248.391 51.9479 249.951 52.0619 250.064 51.4789C250.322 50.1476 250.359 49.8364 251.089 48.5781Z" fill="#063673"/>
<path d="M41.3637 67.0859C42.0669 67.4909 42.1482 67.3927 42.4267 68.2494C43.1824 70.5722 44.3979 68.8484 45.8279 70.0427C46.0787 70.7812 45.9377 70.9949 45.6624 71.7437C45.1687 72.0327 45.1664 72.0119 44.6317 72.1084C42.6004 71.2267 41.0027 69.4109 41.3637 67.0859Z" fill="#063673"/>
<path d="M247.391 49.0527C247.184 47.8724 247.069 48.1534 247.449 47.1324C248.231 46.5679 247.86 46.6984 248.872 46.6819C249.646 47.1959 249.42 46.9069 249.736 47.7609C249.575 48.9412 248.735 49.4919 247.825 50.2154C247.721 49.6862 247.725 49.4857 247.391 49.0527Z" fill="#063673"/>
<path d="M247.391 49.0547C247.725 49.4877 247.721 49.6882 247.825 50.2174C246.931 50.8764 245.937 51.0837 244.882 50.6909L244.867 50.3482L245.406 49.8232C246.336 49.7202 246.667 49.7384 247.391 49.0547Z" fill="#063673"/>
</svg>
